<?xml version="1.0" encoding="utf-8"?>
<!-- Generator: Adobe Illustrator 18.0.0, SVG Export Plug-In . SVG Version: 6.00 Build 0)  -->
<!DOCTYPE svg PUBLIC "-//W3C//DTD SVG 1.1//EN" "http://www.w3.org/Graphics/SVG/1.1/DTD/svg11.dtd">
<svg version="1.1" id="图形" xmlns="http://www.w3.org/2000/svg" xmlns:xlink="http://www.w3.org/1999/xlink" x="0px" y="0px"
	 viewBox="-4294.037 -16.333 1000.636 1000.678" enable-background="new -4294.037 -16.333 1000.636 1000.678" xml:space="preserve"
	>
<g>
	<path fill="#282828" d="M-3791.049,911.914c-17.257-20.81-31.849-43.776-43.269-68.52h-377.876V739.978h349.58
		c-1.142-10.531-1.65-21.063-1.65-31.595c0-24.743,2.918-48.979,8.375-72.326h-356.305V532.642h400.589
		c28.423-43.016,66.871-78.799,111.916-103.796h-512.505v-103.54h585.339v74.23c8.502-2.285,17.257-4.187,26.139-5.711
		c11.293-2.283,23.221-3.679,35.149-4.566c6.725-0.254,13.831-0.508,20.937-0.508V35.109c0-18.906-15.354-34.259-34.26-34.259
		h-680.887c-18.779,0-34.259,15.353-34.259,34.259v890.889c0,18.779,15.48,34.261,34.259,34.261h518.343
		C-3759.58,946.046-3776.329,929.804-3791.049,911.914z M-4212.194,117.968h585.339V221.51h-585.339V117.968z"/>
	<path fill="#282828" d="M-3343.384,556.497c-11.039-14.847-23.982-28.042-38.067-39.97c-0.127,0-0.254-0.127-0.381-0.254
		c-1.396-1.523-2.918-2.664-4.568-3.806c-1.015-0.889-2.03-1.651-3.045-2.412c-8.501-6.851-17.511-12.941-26.9-18.525
		c-8.248-4.949-17.131-9.39-26.139-13.449c-15.227-6.725-31.215-12.055-47.837-15.861c-17.384-3.807-35.783-5.838-54.308-5.838
		c-5.583,0-11.167,0.254-16.496,0.507c-9.39,0.635-18.779,1.778-27.789,3.553c-25.885,4.442-50.248,12.943-72.834,24.744
		c-23.474,12.308-44.918,28.423-63.445,47.456c-25.124,25.884-44.792,57.227-57.1,91.868c-1.269,3.806-2.538,7.613-3.68,11.547
		c-6.852,22.841-10.532,47.329-10.532,72.326c0,10.66,0.634,21.191,1.904,31.595c1.522,11.801,3.806,23.349,6.725,34.513
		c6.726,24.744,17.131,47.837,30.581,68.901c5.583,8.883,11.674,17.384,18.399,25.378c41.365,49.868,101.257,83.619,169.27,90.218
		c8.248,0.889,16.622,1.27,24.998,1.27c139.324,0,252.001-112.679,252.001-251.876
		C-3292.628,651.283-3311.408,598.751-3343.384,556.497z M-3534.479,697.217c0.253-0.506,0.507-1.269,0.761-2.031
		c0.127-0.254,0.253-0.507,0.38-0.761h1.522c5.076-13.576,18.399-41.112,40.478-82.224l32.611-60.147h45.807l-91.74,156.074h72.2
		v34.64h-84.255v47.329h7.487h76.768v22.079v12.816h-84.255v69.283h-27.915h-15.481v-69.283h-66.744h-20.429v-12.816v-22.079h20.429
		h62.683h4.061v-47.329h-66.744h-20.429v-2.791v-31.849h74.484l-54.055-93.009l-36.671-63.065h36.671h12.055
		c34.26,62.557,57.607,106.716,70.17,132.346c3.045,6.219,5.329,11.166,7.106,15.228h0.887c0.254-0.635,0.508-1.397,1.015-2.285
		h1.015v-0.127H-3534.479z"/>
</g>
</svg>
