<?xml version="1.0" encoding="utf-8"?>
<!-- Generator: Adobe Illustrator 18.0.0, SVG Export Plug-In . SVG Version: 6.00 Build 0)  -->
<!DOCTYPE svg PUBLIC "-//W3C//DTD SVG 1.1//EN" "http://www.w3.org/Graphics/SVG/1.1/DTD/svg11.dtd">
<svg version="1.1" id="图形" xmlns="http://www.w3.org/2000/svg" xmlns:xlink="http://www.w3.org/1999/xlink" x="0px" y="0px"
	 viewBox="2827.727 -16.333 1000.636 1000.678" enable-background="new 2827.727 -16.333 1000.636 1000.678" xml:space="preserve">
<g>
	<g opacity="0.5">
		<path fill="#282828" d="M3096.608,398.533c101.864,0,184.534-81.302,184.534-181.426c0-100.275-82.671-181.577-184.534-181.577
			c-101.987,0-184.539,81.302-184.539,181.577C2912.069,317.23,2994.621,398.533,3096.608,398.533z"/>
		<path fill-rule="evenodd" clip-rule="evenodd" fill="#282828" d="M3096.771,411.72c-144.479,0-261.688,114.815-261.688,256.903
			v220.544c0,15.309,29.182,29.182,76.546,39.229c47.362,10.048,112.903,16.264,185.142,16.264
			c143.997,0,261.207-24.875,261.207-55.494V668.623C3357.978,526.536,3241.247,411.72,3096.771,411.72z M3097.247,851.853
			l-85.633-116.255h-1.434l67.454-221.023l-34.444-59.801h105.246l-34.444,59.801l67.454,221.023h1.437L3097.247,851.853z"/>
	</g>
	<g>
		<path fill-rule="evenodd" clip-rule="evenodd" fill="#282828" d="M3823.543,491.547c-3.108-3.11-7.238-4.822-11.628-4.822h-59.177
			c4.755-8.905,7.252-18.895,7.252-29.123c0-34.211-27.832-62.044-62.041-62.044c-33.714,0-61.515,26.195-75.082,41.806
			c-5.87,6.729-11.386,14.128-16.088,21.57c-4.678-7.393-10.191-14.79-16.082-21.566c-13.591-15.614-41.418-41.81-75.085-41.81
			c-34.21,0-62.042,27.833-62.042,62.044c0,10.209,2.503,20.198,7.269,29.124h-59.182c-9.075,0-16.458,7.383-16.458,16.459v68.38
			c0,9.075,7.383,16.458,16.458,16.458h6.338v211.459c0,21.647,17.605,39.258,39.245,39.258h319.082
			c21.645,0,39.253-17.611,39.253-39.258V588.022h6.338c9.07,0,16.449-7.383,16.449-16.458v-68.38
			C3828.364,498.79,3826.652,494.657,3823.543,491.547L3823.543,491.547L3823.543,491.547z M3584.792,486.725h-69.179
			c-16.061,0-29.127-13.064-29.127-29.123c0-16.06,13.067-29.126,29.127-29.126c15.086,0,33.411,11.114,50.274,30.492
			C3573.45,467.66,3580.209,477.605,3584.792,486.725L3584.792,486.725L3584.792,486.725z M3627.649,507.032v313.396h-41.737
			V507.032H3627.649L3627.649,507.032L3627.649,507.032z M3727.079,457.6c-0.002,16.06-13.069,29.125-29.129,29.125h-69.177
			c4.578-9.107,11.335-19.05,18.901-27.757c16.865-19.377,35.19-30.492,50.279-30.492
			C3714.013,428.476,3727.079,441.541,3727.079,457.6L3727.079,457.6L3727.079,457.6z"/>
	</g>
</g>
</svg>
