<?xml version="1.0" encoding="utf-8"?>
<!-- Generator: Adobe Illustrator 18.0.0, SVG Export Plug-In . SVG Version: 6.00 Build 0)  -->
<!DOCTYPE svg PUBLIC "-//W3C//DTD SVG 1.1//EN" "http://www.w3.org/Graphics/SVG/1.1/DTD/svg11.dtd">
<svg version="1.1" id="图形" xmlns="http://www.w3.org/2000/svg" xmlns:xlink="http://www.w3.org/1999/xlink" x="0px" y="0px"
	 viewBox="-6683.513 1415.667 1000.636 1000.678" enable-background="new -6683.513 1415.667 1000.636 1000.678"
	 xml:space="preserve">
<path fill="#282828" d="M-5839.659,1898.053c9.225,4.15,18.449,8.764,26.982,13.837v15.453
	c-23.063-15.915-48.892-28.597-76.336-36.902v-8.761C-5871.947,1885.599-5855.342,1891.134-5839.659,1898.053z"/>
<path fill="#282828" d="M-5962.121,1876.145v2.765c-1.845,0-3.92-0.231-5.766-0.231c-7.842,0-15.451,0.231-22.832,1.154
	C-5981.494,1877.989-5971.806,1876.835-5962.121,1876.145z"/>
<path opacity="0.5" fill="#282828" d="M-6429.53,1648.974v48.456c0,16.204-13.258,29.462-29.462,29.462h-51.068
	c-16.204,0-29.462-13.258-29.462-29.462v-48.456c0-16.204,13.258-29.462,29.462-29.462h51.068
	C-6442.788,1619.511-6429.53,1632.769-6429.53,1648.974z"/>
<path opacity="0.5" fill="#282828" d="M-6429.53,1828.359v48.456c0,16.204-13.258,29.462-29.462,29.462h-51.068
	c-16.204,0-29.462-13.258-29.462-29.462v-48.456c0-16.204,13.258-29.462,29.462-29.462h51.068
	C-6442.788,1798.897-6429.53,1812.155-6429.53,1828.359z"/>
<path opacity="0.5" fill="#282828" d="M-6429.53,2007.764v48.436c0,16.204-13.258,29.462-29.462,29.462h-51.068
	c-16.204,0-29.462-13.258-29.462-29.462v-48.436c0-16.204,13.258-29.462,29.462-29.462h51.068
	C-6442.788,1978.302-6429.53,1991.56-6429.53,2007.764z"/>
<path opacity="0.5" fill="#282828" d="M-5812.677,1542.199v295.659h-0.231c-23.984-10.608-49.583-18.448-76.105-23.062v-248.841
	c0-26.984-22.139-49.123-49.354-49.123h-619.686c-26.982,0-49.123,22.139-49.123,49.123v586.247
	c0,27.212,22.141,49.351,49.123,49.351h294.045c1.384,6.689,2.768,13.147,4.613,19.605c5.074,18.451,11.531,36.207,19.604,53.044
	h-345.476c-54.196,0-98.246-44.283-98.246-98.246v-633.757c0-53.965,44.05-98.243,98.246-98.243h674.344
	C-5856.956,1443.956-5812.677,1488.234-5812.677,1542.199z"/>
<path opacity="0.5" fill="#282828" d="M-5962.063,1648.974v48.456c0,16.204-13.258,29.462-29.462,29.462h-339.129
	c-16.205,0-29.462-13.258-29.462-29.462v-48.456c0-16.204,13.258-29.462,29.462-29.462h339.129
	C-5975.321,1619.511-5962.063,1632.769-5962.063,1648.974z"/>
<path opacity="0.5" fill="#282828" d="M-5968.117,1810.877c-46.125,2.998-89.482,15.912-128.227,36.44
	c-29.521,15.45-56.503,35.514-79.796,59.038h-154.517c-16.144,0-29.521-13.375-29.521-29.521v-48.43
	c0-16.143,13.377-29.521,29.521-29.521h339.247C-5981.725,1798.884-5973.19,1803.726-5968.117,1810.877z"/>
<path opacity="0.5" fill="#282828" d="M-6230.336,1978.31c-8.533,15.45-15.913,31.826-21.909,48.661
	c-6.688,18.91-11.531,38.515-14.53,58.579h-63.882c-16.144,0-29.521-13.144-29.521-29.29v-48.43
	c0-16.373,13.377-29.521,29.521-29.521H-6230.336z"/>
<path fill="#282828" d="M-5737.493,1979.003c-11.531-15.453-24.908-29.29-39.667-41.513c-1.384-1.616-2.999-2.767-4.613-3.919
	c-9.688-8.074-20.064-15.222-30.904-21.68c-8.533-5.073-17.757-9.687-26.982-13.837c-15.683-6.92-32.288-12.455-49.354-16.373
	c-17.988-3.922-36.899-5.996-56.042-5.996c-5.766,0-11.531,0.231-17.066,0.462c-9.686,0.69-19.373,1.844-28.597,3.688
	c-26.753,4.611-51.89,13.378-75.184,25.599c-57.425,30.213-102.397,81.642-124.307,143.681c-9.455,26.981-14.76,56.271-14.76,86.484
	c0,23.521,3.229,46.584,8.995,68.264c9.917,36.207,27.213,69.187,50.507,97.323c47.739,57.656,119.694,94.324,200.412,94.324
	c143.678,0,259.914-116.233,259.914-259.911C-5685.141,2076.787-5704.514,2022.588-5737.493,1979.003z M-5934.676,2124.297
	c4.151-11.072,14.99-33.442,32.979-66.884l44.972-83.021h47.508l-94.557,160.975h10.378h64.114v35.745h-86.945v48.892h7.38h79.565
	v21.446v14.532h-86.945v71.493h-44.741v-71.493h-89.944v-14.532v-21.446h86.023h3.92v-48.892h-89.944v-35.745h69.418h7.38
	l-93.633-160.975h50.276c43.819,80.026,70.34,130.762,79.796,152.208h0.922c0.231-0.69,0.461-1.382,0.923-2.303H-5934.676z"/>
</svg>
