<?xml version="1.0" encoding="utf-8"?>
<!-- Generator: Adobe Illustrator 18.0.0, SVG Export Plug-In . SVG Version: 6.00 Build 0)  -->
<!DOCTYPE svg PUBLIC "-//W3C//DTD SVG 1.1//EN" "http://www.w3.org/Graphics/SVG/1.1/DTD/svg11.dtd">
<svg version="1.1" id="图形" xmlns="http://www.w3.org/2000/svg" xmlns:xlink="http://www.w3.org/1999/xlink" x="0px" y="0px"
	 viewBox="1631.727 -16.333 1000.636 1000.678" enable-background="new 1631.727 -16.333 1000.636 1000.678" xml:space="preserve">
<path fill="#282828" d="M2509.42,523.692c12.728-13.896,24.75-27.021,36.823-40.203c-11.084-3.703-23.374-7.809-35.663-11.914
	c0.01-0.691,0.019-1.381,0.029-2.072c40.51-4.461,81.021-8.921,122.789-13.52c-11.436,42.557-22.461,83.586-33.486,124.614
	c-0.521,0.036-1.041,0.073-1.562,0.109c-2.745-13.197-5.49-26.394-8.47-40.722c-3.423,2.397-6.278,4.277-9.009,6.325
	c-60.126,45.073-120.294,90.09-180.26,135.377c-5.614,4.24-9.666,5.192-15.857,1.01c-11.902-8.038-24.644-14.812-36.671-22.677
	c-5.254-3.436-8.682-2.827-13.313,1.126c-18.004,15.367-36.363,30.317-54.602,45.405c-2.428,2.009-4.932,3.925-7.952,6.321
	c-22.508-19.431-44.696-38.587-66.885-57.742c0.258-0.523,0.515-1.047,0.773-1.57c2.391,0.852,4.844,1.561,7.164,2.577
	c17.244,7.552,34.612,14.847,51.605,22.934c5.776,2.749,8.765,1.948,12.597-2.988c17.667-22.762,35.72-45.223,53.646-67.783
	c1.975-2.486,4.023-4.914,6.719-8.199c19.968,10.665,39.844,21.282,60.036,32.067c26.968-26.393,53.821-52.459,80.235-78.966
	c1.948-1.955,2.109-7.717,0.783-10.655c-25.729-57.025-69.365-92.211-130.741-102.518
	c-90.409-15.182-173.502,39.469-197.693,128.136c-27.91,102.298,45.354,208.66,150.579,218.603
	c87.019,8.223,160.703-45.705,187.669-128.921c4.639-10.148,7.055-25.806,7.055-25.806s17.037-14.464,30.365-24.323
	c8.955,54.835-27.026,153.02-117.606,194.704c-105.03,48.334-223.236,7.131-276.151-95.704
	c-49.484-96.169-12.992-220.016,79.415-274.598C2313.01,372.324,2452.185,405.192,2509.42,523.692z"/>
<g opacity="0.5">
	<path fill="#282828" d="M1891.818,30.238c-101.452,0-183.517,80.774-183.517,180.287s82.065,180.287,183.517,180.287
		c101.129,0,183.194-80.774,183.194-180.287S1992.946,30.238,1891.818,30.238z"/>
	<path fill-rule="evenodd" clip-rule="evenodd" fill="#282828" d="M2098.599,735.553c-38.127-73.988-35.865-160.9-1.938-233.275
		c-47.496-59.772-121.484-98.22-204.843-98.22c-143.777,0-260.09,114.053-260.09,255.567v219.059
		c0,15.184,29.077,29.079,75.926,39.095c47.172,10.016,112.438,16.155,184.164,16.155c143.13,0,259.767-24.879,259.767-55.25
		v-71.081C2130.908,787.247,2112.815,763.339,2098.599,735.553z M1892.141,841.527l-84.974-115.343h-1.292l66.879-219.706
		l-34.248-59.448h104.684l-34.248,59.448l67.202,219.706h1.294L1892.141,841.527z"/>
</g>
</svg>
