<?xml version="1.0" encoding="utf-8"?>
<!-- Generator: Adobe Illustrator 18.0.0, SVG Export Plug-In . SVG Version: 6.00 Build 0)  -->
<!DOCTYPE svg PUBLIC "-//W3C//DTD SVG 1.1//EN" "http://www.w3.org/Graphics/SVG/1.1/DTD/svg11.dtd">
<svg version="1.1" id="图形" xmlns="http://www.w3.org/2000/svg" xmlns:xlink="http://www.w3.org/1999/xlink" x="0px" y="0px"
	 viewBox="-5491.513 1415.667 1000.636 1000.678" enable-background="new -5491.513 1415.667 1000.636 1000.678"
	 xml:space="preserve">
<path opacity="0.5" fill="#282828" d="M-4530.462,2344.25h-889.253v-124.656h53.192c15.069,0,27.396-12.329,27.396-27.396
	c0-15.069-12.328-27.397-27.396-27.397h-53.192v-98.292h53.192c15.069,0,27.396-12.329,27.396-27.397
	c0-15.069-12.328-27.397-27.396-27.397h-53.192v-98.292h53.192c15.069,0,27.396-12.329,27.396-27.397
	c0-15.069-12.328-27.397-27.396-27.397h-53.192v-98.292h53.192c15.069,0,27.396-12.329,27.396-27.397
	c0-15.069-12.328-27.396-27.396-27.396h-53.192v-98.292h53.192c15.069,0,27.396-12.329,27.396-27.397
	c0-15.069-12.328-27.397-27.396-27.397h-53.192v-97.163c0-19.745-16.154-35.899-35.899-35.899
	c-19.745,0-35.899,16.154-35.899,35.899v925.15c0,19.745,16.154,35.899,35.899,35.899c0.519,0,0.948-0.275,1.461-0.297h923.69
	c19.743,0,35.899-16.154,35.899-35.899S-4510.719,2344.25-4530.462,2344.25z"/>
<path fill="#282828" d="M-5133.708,2019.381v230.961c0,16.628-13.604,30.231-30.23,30.231h-58.044
	c-16.626,0-30.231-13.602-30.231-30.231v-151.757L-5133.708,2019.381z"/>
<path fill="#282828" d="M-4940.534,1890.598v359.745c0,16.628-13.604,30.231-30.231,30.231h-58.042
	c-16.626,0-30.231-13.602-30.231-30.231v-280.54L-4940.534,1890.598z"/>
<path fill="#282828" d="M-4747.662,1762.117v488.225c0,16.628-13.604,30.231-30.231,30.231h-57.74
	c-16.626,0-30.231-13.602-30.231-30.231v-409.323L-4747.662,1762.117z"/>
<path fill="#282828" d="M-4554.487,1633.334v617.008c0,16.628-13.604,30.231-30.231,30.231h-57.74
	c-16.628,0-30.231-13.602-30.231-30.231v-538.107L-4554.487,1633.334z"/>
<g>
	<path fill="#282828" d="M-4573.252,1466.889l-177.575,11.037c-8.34,0.518-12.991,9.87-8.372,16.834l32.969,49.703
		c3.313,4.996,1.95,11.732-3.046,15.046l-540.221,358.332c-0.458,0.304-1.073,0.933-1.367,1.399c0,0-10.512,16.683-4.768,25.342
		c5.744,8.661,25.203,5.465,25.203,5.465c0.543-0.089,1.362-0.411,1.82-0.715L-4708.387,1591c4.996-3.314,11.732-1.95,15.045,3.046
		l32.489,48.98c4.619,6.963,15.044,6.315,18.765-1.166l79.228-159.302C-4559.139,1475.075-4564.912,1466.37-4573.252,1466.889z"/>
</g>
</svg>
