<?xml version="1.0" encoding="utf-8"?>
<!-- Generator: Adobe Illustrator 18.0.0, SVG Export Plug-In . SVG Version: 6.00 Build 0)  -->
<!DOCTYPE svg PUBLIC "-//W3C//DTD SVG 1.1//EN" "http://www.w3.org/Graphics/SVG/1.1/DTD/svg11.dtd">
<svg version="1.1" id="图形" xmlns="http://www.w3.org/2000/svg" xmlns:xlink="http://www.w3.org/1999/xlink" x="0px" y="0px"
	 viewBox="-4283.513 1415.667 1000.636 1000.678" enable-background="new -4283.513 1415.667 1000.636 1000.678"
	 xml:space="preserve">
<path fill="#282828" d="M-3783.512,1415.667c-276.143,0-500.001,223.858-500.001,499.999c0,276.143,223.858,500.001,500.001,500.001
	c276.141,0,499.999-223.858,499.999-500.001C-3283.513,1639.525-3507.371,1415.667-3783.512,1415.667z M-3783.512,2356.575
	c-243.508,0-440.909-197.401-440.909-440.909c0-243.507,197.401-440.908,440.909-440.908c243.507,0,440.908,197.401,440.908,440.908
	C-3342.604,2159.175-3540.005,2356.575-3783.512,2356.575z"/>
<g opacity="0.5">
	<path fill="#282828" d="M-3780.452,1848.188c79.677,0,144.341-63.594,144.341-141.909c0-78.434-64.664-142.028-144.341-142.028
		c-79.773,0-144.344,63.594-144.344,142.028C-3924.796,1784.594-3860.225,1848.188-3780.452,1848.188z"/>
	<path fill-rule="evenodd" clip-rule="evenodd" fill="#282828" d="M-3780.324,1858.503c-113.01,0-204.69,89.807-204.69,200.946
		v172.507c0,11.975,22.826,22.826,59.874,30.685c37.046,7.859,88.311,12.722,144.816,12.722
		c112.633,0,204.313-19.457,204.313-43.406v-172.507C-3576.011,1948.31-3667.317,1858.503-3780.324,1858.503z M-3779.952,2202.77
		l-66.981-90.933h-1.121l52.761-172.881l-26.941-46.775h82.323l-26.941,46.775l52.761,172.881h1.124L-3779.952,2202.77z"/>
</g>
</svg>
