<?xml version="1.0" encoding="utf-8"?>
<!-- Generator: Adobe Illustrator 18.0.0, SVG Export Plug-In . SVG Version: 6.00 Build 0)  -->
<!DOCTYPE svg PUBLIC "-//W3C//DTD SVG 1.1//EN" "http://www.w3.org/Graphics/SVG/1.1/DTD/svg11.dtd">
<svg version="1.1" id="图形" xmlns="http://www.w3.org/2000/svg" xmlns:xlink="http://www.w3.org/1999/xlink" x="0px" y="0px"
	 viewBox="451.727 -16.333 1000.636 1000.678" enable-background="new 451.727 -16.333 1000.636 1000.678" xml:space="preserve">
<path fill="#282828" d="M1026.354,335.685v553.362h426.009V335.685H1026.354z M1415.988,831.303H1062.73v-62.54h353.258V831.303z
	 M1415.988,706.146H1062.73v-62.479h353.258V706.146z M1415.988,581.066H1062.73v-62.531h353.258V581.066z M1415.988,455.951
	H1062.73v-62.513h353.258V455.951z"/>
<g opacity="0.5">
	<path fill="#282828" d="M712.608,398.533c101.864,0,184.534-81.302,184.534-181.426c0-100.275-82.671-181.577-184.534-181.577
		c-101.987,0-184.539,81.302-184.539,181.577C528.069,317.23,610.621,398.533,712.608,398.533z"/>
	<path fill-rule="evenodd" clip-rule="evenodd" fill="#282828" d="M712.771,411.72c-144.479,0-261.689,114.815-261.689,256.903
		v220.544c0,15.309,29.182,29.182,76.546,39.229c47.362,10.048,112.903,16.264,185.142,16.264
		c143.997,0,261.207-24.875,261.207-55.494V668.623C973.978,526.536,857.247,411.72,712.771,411.72z M713.247,851.853
		l-85.633-116.255h-1.434l67.454-221.023l-34.444-59.801h105.247l-34.444,59.801l67.454,221.023h1.437L713.247,851.853z"/>
</g>
</svg>
