<?xml version="1.0" encoding="utf-8"?>
<!-- Generator: Adobe Illustrator 18.0.0, SVG Export Plug-In . SVG Version: 6.00 Build 0)  -->
<!DOCTYPE svg PUBLIC "-//W3C//DTD SVG 1.1//EN" "http://www.w3.org/Graphics/SVG/1.1/DTD/svg11.dtd">
<svg version="1.1" id="图形" xmlns="http://www.w3.org/2000/svg" xmlns:xlink="http://www.w3.org/1999/xlink" x="0px" y="0px"
	 viewBox="-683.513 1415.667 1000.636 1000.678" enable-background="new -683.513 1415.667 1000.636 1000.678" xml:space="preserve"
	>
<path fill-rule="evenodd" clip-rule="evenodd" fill="#282828" d="M-29.14,1966.852l-156.31-22.786
	c-23.955-3.508-52.299-23.967-63.101-45.865l-69.828-141.704c-5.256-10.813-12.559-16.36-19.571-16.36
	c-7.018,0-14.02,5.547-19.585,16.36l-69.818,141.704c-10.813,21.608-39.156,42.357-63.112,45.865l-156.302,22.786
	c-23.956,3.51-29.51,20.163-11.981,37.101l113.068,110.152c17.237,16.935,28.042,50.249,23.948,74.197l-26.581,155.734
	c-2.924,17.237,3.795,27.466,15.776,27.466c4.68,0,9.944-1.463,15.784-4.68l139.641-73.621c10.81-5.557,24.841-8.473,38.871-8.473
	c14.012,0,28.335,2.916,38.855,8.473l139.646,73.621c5.84,3.217,11.4,4.68,15.784,4.68c11.972,0,18.692-10.229,15.768-27.466
	l-26.578-155.734c-4.086-23.948,6.719-57.261,23.955-74.197l113.06-110.152C0.08,1987.015-5.176,1970.362-29.14,1966.852
	L-29.14,1966.852"/>
<path opacity="0.5" fill-rule="evenodd" clip-rule="evenodd" fill="#282828" d="M279.243,1594.049l-80.996-11.807
	c-12.413-1.818-27.1-12.419-32.697-23.766l-36.183-73.428c-2.724-5.603-6.508-8.477-10.141-8.477c-3.636,0-7.265,2.874-10.148,8.477
	l-36.178,73.428c-5.603,11.197-20.29,21.948-32.703,23.766l-80.992,11.807c-12.413,1.819-15.292,10.448-6.208,19.225l58.589,57.078
	c8.932,8.776,14.531,26.038,12.409,38.447l-13.774,80.698c-1.515,8.932,1.967,14.232,8.175,14.232c2.425,0,5.153-0.758,8.179-2.425
	l72.359-38.149c5.602-2.88,12.872-4.391,20.142-4.391c7.26,0,14.682,1.511,20.134,4.391l72.361,38.149
	c3.026,1.667,5.907,2.425,8.179,2.425c6.204,0,9.686-5.301,8.171-14.232l-13.772-80.698c-2.117-12.409,3.482-29.672,12.413-38.447
	l58.585-57.078C294.384,1604.497,291.661,1595.868,279.243,1594.049L279.243,1594.049"/>
<path opacity="0.5" fill-rule="evenodd" clip-rule="evenodd" fill="#282828" d="M308.415,2062.863l-54.81-7.99
	c-8.4-1.23-18.338-8.404-22.126-16.082l-24.485-49.688c-1.843-3.792-4.404-5.736-6.863-5.736c-2.461,0-4.916,1.945-6.867,5.736
	l-24.481,49.688c-3.792,7.577-13.73,14.852-22.13,16.082l-54.807,7.99c-8.4,1.231-10.348,7.07-4.201,13.009l39.647,38.625
	c6.044,5.938,9.833,17.62,8.397,26.017l-9.321,54.608c-1.025,6.044,1.331,9.631,5.532,9.631c1.641,0,3.487-0.513,5.535-1.641
	l48.965-25.815c3.791-1.948,8.71-2.971,13.63-2.971c4.913,0,9.936,1.022,13.624,2.971l48.967,25.815
	c2.048,1.128,3.997,1.641,5.535,1.641c4.198,0,6.554-3.587,5.529-9.631l-9.32-54.608c-1.433-8.397,2.356-20.078,8.4-26.017
	l39.644-38.625C318.66,2069.933,316.817,2064.094,308.415,2062.863L308.415,2062.863"/>
</svg>
