<?xml version="1.0" encoding="utf-8"?>
<!-- Generator: Adobe Illustrator 18.0.0, SVG Export Plug-In . SVG Version: 6.00 Build 0)  -->
<!DOCTYPE svg PUBLIC "-//W3C//DTD SVG 1.1//EN" "http://www.w3.org/Graphics/SVG/1.1/DTD/svg11.dtd">
<svg version="1.1" id="图形" xmlns="http://www.w3.org/2000/svg" xmlns:xlink="http://www.w3.org/1999/xlink" x="0px" y="0px"
	 viewBox="-3083.513 1415.667 1000.636 1000.678" enable-background="new -3083.513 1415.667 1000.636 1000.678"
	 xml:space="preserve">
<g opacity="0.5">
	<path fill-rule="evenodd" clip-rule="evenodd" fill="#282828" d="M-2815.392,1840.536c101.864,0,184.534-81.302,184.534-181.426
		c0-100.275-82.671-181.577-184.534-181.577c-101.987,0-184.539,81.302-184.539,181.577
		C-2999.931,1759.234-2917.379,1840.536-2815.392,1840.536z"/>
	<path fill-rule="evenodd" clip-rule="evenodd" fill="#282828" d="M-2815.229,1853.724c-144.479,0-261.689,114.815-261.689,256.903
		v220.543c0,15.309,29.182,29.182,76.547,39.229c47.362,10.048,112.903,16.264,185.142,16.264
		c143.997,0,261.207-24.875,261.207-55.494v-220.543C-2554.022,1968.539-2670.753,1853.724-2815.229,1853.724z"/>
</g>
<g>
	<g>
		<g>
			<path fill="#282828" d="M-2100.329,2096.564h-20.998c-9.648,0-19.722-7.52-22.701-16.6l-11.918-29.228
				c-4.54-8.513-2.696-20.998,3.973-27.808l14.897-14.897c6.81-6.811,6.81-17.877,0-24.688l-24.687-24.687
				c-6.811-6.81-17.877-6.81-24.688,0l-14.897,14.898c-6.81,6.81-19.296,8.655-27.808,4.114l-29.228-12.061
				c-9.081-2.837-16.601-13.053-16.601-22.701v-20.856c0-9.649-7.945-17.594-17.451-17.594h-34.903
				c-9.648,0-17.593,7.945-17.593,17.594v20.856c0,9.648-7.378,19.864-16.6,22.701l-29.228,12.061
				c-8.513,4.54-20.999,2.696-27.667-4.114l-15.039-14.898c-6.669-6.81-17.877-6.81-24.687,0l-24.687,24.687
				c-6.669,6.811-6.669,17.877,0,24.688l14.897,14.897c6.81,6.81,8.655,19.296,4.114,27.808l-12.06,29.228
				c-2.838,9.08-13.053,16.6-22.701,16.6h-20.856c-9.648,0-17.451,7.945-17.451,17.451v34.903c0,9.648,7.803,17.593,17.451,17.593
				h20.856c9.649,0,19.864,7.519,22.701,16.6l12.06,29.228c4.54,8.513,2.696,20.999-4.114,27.809l-14.897,14.897
				c-6.669,6.81-6.669,17.877,0,24.687l24.687,24.687c6.81,6.811,18.018,6.811,24.687,0l14.897-14.897
				c6.81-6.81,19.296-8.655,27.667-3.972l29.369,11.917c9.222,2.98,16.6,13.054,16.6,22.702v20.856
				c0,9.648,7.945,17.451,17.593,17.451h34.903c9.506,0,17.451-7.803,17.451-17.451v-20.856c0-9.648,7.52-19.722,16.601-22.702
				l29.369-11.917c8.371-4.682,20.999-2.838,27.667,3.972l14.897,14.897c6.811,6.811,17.877,6.811,24.688,0l24.687-24.687
				c6.81-6.81,6.81-17.877,0-24.687l-14.897-14.897c-6.669-6.81-8.513-19.296-3.973-27.809l11.918-29.228
				c2.979-9.081,13.053-16.6,22.701-16.6h20.998c9.507,0,17.452-7.945,17.452-17.451v-35.045
				C-2082.876,2104.509-2090.822,2096.564-2100.329,2096.564z M-2309.887,2244.12c-62.286,0-112.654-50.368-112.654-112.654
				c0-62.144,50.368-112.512,112.654-112.512c62.144,0,112.512,50.369,112.512,112.512
				C-2197.375,2193.752-2247.743,2244.12-2309.887,2244.12z M-2309.887,2097.84c-18.729,0-33.768,15.039-33.768,33.626
				c0,18.728,15.039,33.768,33.768,33.768c18.586,0,33.626-15.04,33.626-33.768
				C-2276.261,2112.879-2291.301,2097.84-2309.887,2097.84z"/>
		</g>
		<path fill="#282828" d="M-2276.261,2131.466c0,18.728-15.039,33.768-33.626,33.768c-18.729,0-33.768-15.04-33.768-33.768
			c0-18.587,15.039-33.626,33.768-33.626C-2291.301,2097.84-2276.261,2112.879-2276.261,2131.466z"/>
	</g>
	<path fill="#282828" d="M-2276.261,2131.466c0,18.728-15.039,33.768-33.626,33.768c-18.729,0-33.768-15.04-33.768-33.768
		c0-18.587,15.039-33.626,33.768-33.626C-2291.301,2097.84-2276.261,2112.879-2276.261,2131.466z"/>
	<path fill="#282828" d="M-2309.887,2097.84c-18.729,0-33.768,15.039-33.768,33.626c0,18.728,15.039,33.768,33.768,33.768
		c18.586,0,33.626-15.04,33.626-33.768C-2276.261,2112.879-2291.301,2097.84-2309.887,2097.84z"/>
</g>
</svg>
