<?xml version="1.0" encoding="utf-8"?>
<!-- Generator: Adobe Illustrator 18.0.0, SVG Export Plug-In . SVG Version: 6.00 Build 0)  -->
<!DOCTYPE svg PUBLIC "-//W3C//DTD SVG 1.1//EN" "http://www.w3.org/Graphics/SVG/1.1/DTD/svg11.dtd">
<svg version="1.1" id="图形" xmlns="http://www.w3.org/2000/svg" xmlns:xlink="http://www.w3.org/1999/xlink" x="0px" y="0px"
	 viewBox="-3106.036 -16.333 1000.636 1000.678" enable-background="new -3106.036 -16.333 1000.636 1000.678" xml:space="preserve"
	>
<g>
	<path d="M-3106.036,435.31c0.502-1.419,0.948-2.861,1.517-4.253c2.236-5.467,5.729-9.502,11.944-10.464
		c24.486-3.791,48.961-7.661,73.463-11.348c4.155-0.625,6.687-1.851,8.303-6.393c3.781-10.625,8.354-20.988,13.03-31.263
		c1.421-3.122,1.172-5.086-0.849-7.675c-14.244-18.252-28.333-36.624-42.507-54.931c-7.194-9.292-7.273-15.946-0.156-25.049
		c2.082-2.663,4.021-5.458,6.292-7.95c18.448-20.243,36.844-40.553,58.092-57.983c15.738-12.91,20.743-12.458,34.693-0.95
		c16.296,13.443,33.1,26.269,49.574,39.499c2.72,2.185,4.788,2.418,8.08,0.917c10.581-4.823,21.357-9.234,32.171-13.519
		c2.819-1.117,4.332-2.295,4.696-5.547c1.746-15.585,3.535-31.174,5.799-46.689c1.482-10.158,3.532-20.256,5.824-30.267
		c2.06-8.997,7.052-12.834,16.279-12.863c31.448-0.099,62.896-0.111,94.344,0.002c10.106,0.036,15.487,5.578,16.926,15.708
		c3.556,25.036,7.332,50.041,11.231,75.025c0.241,1.543,2.043,3.421,3.578,4.091c10.966,4.783,22.135,9.103,33.044,14.006
		c3.164,1.422,4.938,0.419,7.19-1.314c18.086-13.911,36.243-27.73,54.333-41.637c11.497-8.838,17.769-8.637,28.181,1.655
		c16.587,16.398,33.208,32.77,49.412,49.543c6.426,6.652,12.185,14.058,17.501,21.643c5.671,8.091,5.088,12.77-0.948,20.679
		c-10.152,13.302-20.372,26.552-30.492,39.878c-3.883,5.113-7.779,10.242-11.222,15.648c-1.039,1.632-1.366,4.525-0.674,6.322
		c4.726,12.273,9.946,24.356,14.689,36.623c1.259,3.256,3.356,4.228,6.374,4.687c24.329,3.698,48.65,7.446,72.972,11.191
		c8.494,1.308,13.51,7.006,13.52,15.571c0.035,32.462,0.041,64.925-0.005,97.388c-0.011,8.161-4.944,14.295-12.887,15.595
		c-24.945,4.086-49.909,8.065-74.902,11.848c-3.366,0.51-4.862,1.842-6.069,4.903c-4.326,10.976-8.864,21.874-13.621,32.67
		c-1.273,2.89-1.1,4.847,0.816,7.304c14.235,18.259,28.302,36.65,42.516,54.925c7.429,9.552,7.557,15.913-0.285,25.241
		c-19.278,22.927-39.692,44.773-62.325,64.454c-3.048,2.65-6.378,5.01-9.746,7.251c-8.287,5.516-13.706,5.244-21.654-1.037
		c-15.516-12.262-31.379-24.13-46.317-37.063c-8.003-6.928-14.604-9.739-24.553-3.512c-7.151,4.476-15.844,6.541-23.94,9.425
		c-3.099,1.104-4.296,2.692-4.766,6.091c-3.509,25.366-7.167,50.714-11.15,76.009c-1.449,9.202-6.946,13.147-16.283,13.144
		c-31.786-0.008-63.572-0.006-95.359,0c-9.101,0.002-14.311-4.052-15.708-13.029c-3.786-24.317-7.451-48.655-10.905-73.021
		c-0.706-4.977-2.232-7.792-7.542-9.588c-10.032-3.393-19.682-7.964-29.345-12.366c-2.84-1.294-4.738-1.25-7.238,0.681
		c-19.263,14.876-38.625,29.624-57.982,44.378c-6.78,5.168-14.87,5.493-20.835-0.217c-23.675-22.665-48.262-44.474-68.243-70.711
		c-0.41-0.538-0.817-1.078-1.21-1.628c-7.509-10.519-7.423-14.434,0.486-24.816c13.522-17.747,26.963-35.555,40.618-53.199
		c2.204-2.848,2.229-4.98,0.801-8.183c-5.215-11.696-10.119-23.534-14.943-35.399c-1.119-2.752-2.329-4.261-5.593-4.763
		c-24.82-3.816-49.567-8.117-74.407-11.793c-8.146-1.206-10.985-6.796-13.627-13.132
		C-3106.036,502.27-3106.036,468.79-3106.036,435.31z M-2638.89,485.914c1.842-71.853-58.432-136.087-133.809-135.895
		c-75.028,0.192-133.836,63.05-133.927,135.72c-0.094,75.176,62.366,135.657,133.749,135.893
		C-2699.928,621.872-2636.929,558.982-2638.89,485.914z"/>
	<path d="M-2372.52,950.7c-1.217-0.873-2.371-1.852-3.659-2.603c-18.819-10.967-37.661-21.894-56.485-32.853
		c-6.189-3.603-7.196-4.959-4.874-11.797c5.359-15.786,11.217-31.406,17.046-47.029c2.002-5.367,4.361-10.618,6.862-15.774
		c1.344-2.771,1.082-4.889-0.506-7.482c-4.048-6.612-7.959-13.327-11.524-20.208c-1.592-3.073-3.482-4.224-6.926-4.703
		c-20.017-2.787-39.991-5.889-59.961-9.003c-2.636-0.411-5.199-1.402-7.739-2.288c-4.062-1.417-6.003-3.871-5.939-8.675
		c0.285-21.125,0.122-42.256,0.123-63.384c0-7.27,0.438-8.417,7.678-10.249c9.613-2.432,19.354-4.484,29.143-6.06
		c12.641-2.035,25.4-3.331,38.064-5.239c1.77-0.267,3.854-1.855,4.823-3.428c4.152-6.745,7.749-13.833,11.95-20.546
		c1.826-2.918,1.942-5.218,0.677-8.378c-7.702-19.242-15.164-38.581-22.706-57.887c-0.123-0.315-0.271-0.623-0.36-0.948
		c-2.944-10.676-2.68-11.355,6.772-16.83c17.532-10.157,35.128-20.206,52.568-30.52c4.184-2.474,7.382-2.413,10.499,1.378
		c12.544,15.256,25.812,29.982,37.408,45.925c5.952,8.183,11.639,11.918,21.62,9.496c3.753-0.911,8.051,0.151,12.06,0.642
		c4.279,0.524,6.93-0.942,9.701-4.471c13.554-17.264,27.593-34.146,41.307-51.285c3.271-4.087,6.394-4.419,10.817-1.81
		c18.906,11.153,37.897,22.165,56.971,33.027c4.273,2.433,5.031,5.709,3.599,9.774c-5.485,15.568-10.992,31.131-16.751,46.599
		c-2.469,6.631-7.866,13.072-7.735,19.513c0.126,6.201,6.364,12.045,8.664,18.492c3.217,9.017,8.943,11.868,18.299,12.728
		c17.076,1.569,34.027,4.755,50.925,7.84c4.986,0.91,9.62,3.749,14.415,5.704c0,25.026,0,50.051,0,75.076
		c-3.133,1.579-6.116,4.019-9.424,4.596c-21.045,3.666-42.136,7.099-63.278,10.149c-3.917,0.565-5.992,1.928-7.59,5.297
		c-2.164,4.562-4.121,9.447-7.292,13.256c-5.718,6.867-5.157,12.9-1.731,20.927c7.919,18.55,14.41,37.711,21.429,56.643
		c1.828,4.931,0.034,8.075-4.575,10.692c-18.633,10.579-37.093,21.461-55.593,32.271c-1.703,0.995-3.238,2.277-4.852,3.425
		c-0.338,0-0.676,0-1.015,0c-3.138-3.032-6.637-5.772-9.352-9.145c-12.679-15.757-25.268-31.59-37.58-47.634
		c-2.597-3.384-5.092-4.533-9.265-4.233c-6.513,0.469-13.112,0.506-19.621,0.016c-4.371-0.329-7.037,0.83-9.649,4.459
		c-14.266,19.825-28.631,39.599-46.425,56.537C-2371.843,950.7-2372.181,950.7-2372.52,950.7z M-2372.828,756.071
		c-0.005,37.746,29.892,68.041,67.145,68.039c37.084-0.003,67.308-30.567,67.303-68.06c-0.006-36.863-31.184-68.31-67.585-68.168
		C-2342.306,688.023-2372.823,719.146-2372.828,756.071z"/>
	<path d="M-2105.694,253.707c-12.103,6.734-25.695,7.687-38.94,9.784c-11.316,1.791-22.736,2.95-34.126,4.245
		c-3.307,0.376-5.382,1.658-6.979,4.796c-3.44,6.757-7.272,13.33-11.26,19.784c-1.76,2.849-2.005,5.093-0.689,8.324
		c7.566,18.58,15.125,37.175,22.044,56.002c4.976,13.541,4.549,13.739-7.805,20.95c-17.214,10.047-34.533,19.917-51.637,30.147
		c-3.672,2.196-6.193,1.862-8.701-1.175c-12.471-15.107-25.599-29.738-37.099-45.552c-6.154-8.462-11.955-13.591-22.872-11.242
		c-4.181,0.899-8.815,0.404-13.127-0.237c-3.624-0.538-5.479,0.798-7.551,3.466c-12.54,16.144-25.047,32.322-38.003,48.129
		c-8.081,9.859-8.476,9.659-19.19,3.473c-17.26-9.967-34.345-20.244-51.735-29.978c-4.897-2.741-5.803-6.263-4.462-10.855
		c2.219-7.599,4.415-15.241,7.289-22.604c5.336-13.671,11.073-27.19,16.835-40.689c1.26-2.95,1.15-5.172-0.578-7.939
		c-4.018-6.433-7.964-12.96-11.248-19.782c-1.887-3.92-4.677-4.62-8.363-5.13c-18.694-2.588-37.444-4.903-56.013-8.217
		c-16.249-2.9-16.196-3.481-16.196-19.969c0-18.43,0.245-36.866-0.146-55.288c-0.122-5.733,2.155-8.626,7.202-9.734
		c10.682-2.344,21.358-4.81,32.144-6.569c11.308-1.844,22.735-2.978,34.125-4.297c3.489-0.404,5.56-1.88,7.189-5.21
		c3.106-6.351,6.616-12.566,10.587-18.411c2.54-3.739,2.325-6.694,0.694-10.663c-7.309-17.778-14.717-35.54-21.187-53.631
		c-5.224-14.606-4.658-14.821,8.491-22.456c16.069-9.33,32.135-18.667,48.232-27.948c6.937-3.999,7.712-4.369,12.886,1.802
		c13.889,16.563,27.384,33.464,40.749,50.455c2.588,3.291,4.849,4.629,9.173,4.278c7.217-0.587,14.543-0.45,21.775,0.059
		c3.424,0.241,5.137-0.906,7.104-3.376c13.57-17.046,27.267-33.991,41.023-50.888c1.866-2.292,4.284-4.133,6.447-6.183
		c0.338,0,0.677,0,1.015,0c0.449,0.447,0.827,1.018,1.357,1.324c17.825,10.297,35.689,20.528,53.495,30.857
		c12.696,7.365,13.1,7.583,8.049,21.251c-7.006,18.956-14.83,37.608-22.053,56.487c-0.746,1.951-0.468,4.901,0.501,6.791
		c3.534,6.892,7.794,13.412,11.302,20.316c1.66,3.267,3.792,4.734,7.281,5.136c11.38,1.311,22.784,2.519,34.099,4.279
		c13.237,2.06,26.797,3.056,38.875,9.799C-2105.694,202.979-2105.694,228.343-2105.694,253.707z M-2305.493,283.466
		c32.251,1.607,67.197-27.08,67.111-68.002c-0.077-36.779-30.781-67.671-67.272-67.709c-36.932-0.038-66.974,30.672-67.241,68.11
		C-2373.171,254.353-2339.89,285.117-2305.493,283.466z"/>
</g>
</svg>
