<?xml version="1.0" encoding="utf-8"?>
<!-- Generator: Adobe Illustrator 18.0.0, SVG Export Plug-In . SVG Version: 6.00 Build 0)  -->
<!DOCTYPE svg PUBLIC "-//W3C//DTD SVG 1.1//EN" "http://www.w3.org/Graphics/SVG/1.1/DTD/svg11.dtd">
<svg version="1.1" id="图形" xmlns="http://www.w3.org/2000/svg" xmlns:xlink="http://www.w3.org/1999/xlink" x="0px" y="0px"
	 viewBox="-730.036 -16.333 1000.636 1000.678" enable-background="new -730.036 -16.333 1000.636 1000.678" xml:space="preserve">
<path opacity="0.5" fill="#282828" d="M-230.3,855.771c-122.868,0-245.737,0.047-368.605-0.017
	c-81.836-0.043-131.003-49.93-131.046-133.033c-0.074-142.09-0.17-284.18,0.055-426.27c0.098-61.597,32.777-107.326,88.164-122.721
	c13.653-3.795,28.339-4.935,42.579-5.131c45.543-0.625,91.1-0.384,136.65-0.112c9.436,0.056,18.077,0.159,21.507-11.153
	c0.329-1.084,1.282-2.13,2.206-2.847c55.867-43.414,108.09-93.698,180.201-108.425c43.328-8.849,84.833-0.298,122.21,24.188
	c31.719,20.779,62.765,42.633,93.886,64.342c6.869,4.792,15.101,9.753,18.704,16.765c8.86,17.242,22.717,17.34,38.806,17.29
	c49.707-0.152,99.596-1.511,149.08,2.209c60.529,4.551,103.598,53.496,106.017,115.811c1.135,29.228,0.363,58.534,0.368,87.804
	c0.021,115.867,0.056,231.734-0.008,347.601c-0.046,84.303-48.867,133.66-132.169,133.688
	C15.436,855.801-107.432,855.771-230.3,855.771z M-228.78,217.2c-122.285,0-244.569-0.03-366.854,0.013
	c-60.181,0.021-87.011,27.098-87.021,87.744c-0.024,138.448-0.028,276.897,0.002,415.345c0.013,59.201,27.71,87.348,85.988,87.353
	c244.569,0.024,489.138,0.023,733.707,0.001c58.367-0.005,86.114-28.106,86.127-87.212c0.031-138.449,0.025-276.897,0.003-415.346
	c-0.01-60.739-26.801-87.863-86.897-87.885C14.59,217.17-107.095,217.2-228.78,217.2z M-179.311,133.126
	c0.229-28.199-21.802-51.207-49.563-51.762c-27.617-0.551-50.595,21.855-51.272,49.997c-0.697,28.99,21.959,52.621,50.433,52.604
	C-201.943,183.947-179.54,161.35-179.311,133.126z"/>
<path fill="#282828" d="M-78.821,492.933c68.957-0.003,137.914-0.012,206.871,0.015c5.392,0.002,12.183-1.781,15.868,0.84
	c6.547,4.658,14.696,11.602,15.556,18.451c0.682,5.432-7.675,13.313-13.664,17.866c-3.641,2.768-10.407,1.65-15.77,1.652
	c-139.113,0.067-278.226,0.053-417.339,0.052c-1.199,0-2.399,0.003-3.598-0.018c-13.632-0.244-26.296-2.676-25.744-20.407
	c0.514-16.509,12.485-18.512,25.553-18.494C-220.332,492.986-149.577,492.935-78.821,492.933z"/>
<path fill="#282828" d="M-78.027,442.52c-70.75,0.004-141.501,0.178-212.249-0.259c-7.28-0.045-16.121-1.753-21.47-6.164
	c-10.341-8.53-5.389-26.883,7.635-30.547c6.215-1.749,13.057-1.608,19.615-1.612c137.303-0.082,274.606-0.062,411.909-0.06
	c2.998,0,5.996,0.043,8.993,0.041c12.742-0.01,23.599,4.035,23.886,18.73c0.306,15.677-10.402,19.99-24.272,19.954
	C64.673,442.415-6.677,442.515-78.027,442.52z"/>
<path fill="#282828" d="M29.227,620.964c-32.92,0.008-65.84,0-98.76,0.012c-13.481,0.005-25.946-2.002-27.239-19.217
	c-1.001-13.328,8.699-20.226,27.893-20.252c67.636-0.095,135.275-0.353,202.903,0.385c7.965,0.087,18.523,3.748,23.257,9.614
	c10.318,12.783-1.011,29.013-20.318,29.298C101.058,621.333,65.14,620.955,29.227,620.964z"/>
<g>
	<path fill="#282828" d="M-483.617,474.783c41.592,0,75.347-33.196,75.347-74.078c0-40.943-33.755-74.139-75.347-74.139
		c-41.642,0-75.349,33.196-75.349,74.139C-558.966,441.587-525.259,474.783-483.617,474.783z"/>
	<path fill-rule="evenodd" clip-rule="evenodd" fill="#282828" d="M-483.551,480.168c-58.992,0-106.849,46.88-106.849,104.895v90.05
		c0,6.251,11.915,11.915,31.255,16.018c19.338,4.102,46.099,6.641,75.595,6.641c58.795,0,106.653-10.157,106.653-22.658v-90.05
		C-376.898,527.047-424.56,480.168-483.551,480.168z M-483.356,659.877l-34.965-47.468h-0.585l27.542-90.245l-14.064-24.417h42.973
		l-14.064,24.417l27.542,90.245h0.587L-483.356,659.877z"/>
</g>
</svg>
